<?xml version="1.0" encoding="utf-8"?>
<!-- Generator: Adobe Illustrator 16.0.0, SVG Export Plug-In . SVG Version: 6.00 Build 0)  -->
<!DOCTYPE svg PUBLIC "-//W3C//DTD SVG 1.0//EN" "http://www.w3.org/TR/2001/REC-SVG-20010904/DTD/svg10.dtd">
<svg version="1.0" xmlns="http://www.w3.org/2000/svg" xmlns:xlink="http://www.w3.org/1999/xlink" x="0px" y="0px" width="256px"
	 height="256px" viewBox="0 0 256 256" enable-background="new 0 0 256 256" xml:space="preserve">
<g id="Layer_2" display="none">
	<rect x="373" y="374" display="inline" fill="#377BB3" width="309" height="318"/>
</g>
<g id="Black" display="none">
	<g id="Layer_3_copy" display="inline">
		<circle cx="128" cy="128" r="128"/>
	</g>
	<g id="Layer_11_copy" display="inline">
		<g>
			<path fill="#FFFFFF" d="M91.3,93.204v0.911H58.409v28.003h28.748v0.911H58.409v28.168h-0.994V93.204H91.3z"/>
			<path fill="#FFFFFF" d="M113.835,109.939c2.126,0,4.114,0.38,5.965,1.139c1.85,0.76,3.459,1.885,4.826,3.376
				c1.367,1.491,2.437,3.321,3.21,5.489c0.773,2.168,1.16,4.66,1.16,7.477c0,0.139-0.049,0.242-0.145,0.311
				c-0.097,0.069-0.214,0.104-0.352,0.104H97.182c-0.056,0.388-0.083,0.761-0.083,1.119c0,0.359,0,0.731,0,1.118
				c0,3.369,0.4,6.345,1.201,8.927c0.801,2.583,1.94,4.75,3.417,6.504c1.477,1.754,3.258,3.086,5.344,3.997
				c2.084,0.911,4.397,1.367,6.938,1.367c2.292,0,4.259-0.249,5.903-0.746c1.643-0.497,3.01-1.049,4.101-1.656
				c1.09-0.607,1.919-1.16,2.485-1.657c0.566-0.497,0.932-0.746,1.098-0.746c0.11,0,0.221,0.056,0.332,0.166l0.166,0.166
				c-0.47,0.58-1.167,1.181-2.092,1.802c-0.926,0.621-2.016,1.194-3.272,1.719c-1.257,0.525-2.63,0.953-4.122,1.284
				c-1.491,0.332-3.024,0.497-4.598,0.497c-2.79,0-5.289-0.49-7.498-1.471c-2.21-0.979-4.081-2.396-5.613-4.245
				c-1.533-1.851-2.713-4.115-3.542-6.794c-0.829-2.679-1.243-5.717-1.243-9.113c0-2.982,0.4-5.709,1.201-8.182
				c0.801-2.471,1.96-4.591,3.479-6.358c1.519-1.767,3.376-3.141,5.572-4.121C108.553,110.43,111.045,109.939,113.835,109.939z
				 M113.835,110.768c-2.431,0-4.619,0.394-6.566,1.181s-3.625,1.892-5.033,3.314c-1.408,1.422-2.534,3.142-3.376,5.157
				c-0.843,2.016-1.388,4.239-1.636,6.669h30.861c0-2.623-0.359-4.95-1.077-6.98c-0.718-2.029-1.719-3.734-3.003-5.115
				s-2.796-2.43-4.536-3.148C117.729,111.127,115.85,110.768,113.835,110.768z"/>
			<path fill="#FFFFFF" d="M143.08,91.547v59.65h-0.994v-59.65H143.08z"/>
			<path fill="#FFFFFF" d="M163.293,95.523c0,0.58-0.242,1.098-0.725,1.554c-0.483,0.456-1.015,0.684-1.595,0.684
				c-0.636,0-1.181-0.228-1.636-0.684c-0.456-0.456-0.684-0.974-0.684-1.554c0-0.635,0.228-1.181,0.684-1.636
				c0.456-0.456,1-0.684,1.636-0.684c0.58,0,1.111,0.228,1.595,0.684C163.052,94.343,163.293,94.889,163.293,95.523z
				 M161.471,110.602v40.596h-0.994v-40.596H161.471z"/>
			<path fill="#FFFFFF" d="M186.987,130.568l-14.582-19.967h0.912c0.221,0,0.386,0.077,0.497,0.229
				c0.11,0.152,0.193,0.27,0.249,0.352l13.628,18.849c0.055-0.11,0.11-0.208,0.166-0.29c0.055-0.083,0.125-0.193,0.207-0.332
				l13.256-18.227c0.083-0.138,0.187-0.269,0.311-0.394c0.125-0.124,0.27-0.187,0.435-0.187h0.911l-14.623,19.843l15.203,20.753
				h-0.911c-0.222,0-0.387-0.075-0.497-0.228c-0.111-0.151-0.194-0.27-0.249-0.353l-14.25-19.635
				c-0.028,0.139-0.139,0.332-0.332,0.58l-13.835,19.055c-0.111,0.139-0.221,0.27-0.332,0.394c-0.11,0.125-0.249,0.187-0.414,0.187
				h-0.912L186.987,130.568z"/>
		</g>
		<line fill="none" stroke="#FFFFFF" stroke-miterlimit="10" x1="57" y1="169.5" x2="203" y2="169.5"/>
	</g>
</g>
<g id="Blue">
	<g id="Layer_3_copy_2">
		<circle fill="#377BB3" cx="128" cy="128" r="128"/>
	</g>
	<g id="Layer_11_copy_2">
		<g>
			<path fill="#FFFFFF" d="M91.3,93.204v0.911H58.409v28.003h28.748v0.911H58.409v28.168h-0.994V93.204H91.3z"/>
			<path fill="#FFFFFF" d="M113.835,109.939c2.126,0,4.114,0.38,5.965,1.139c1.85,0.76,3.459,1.885,4.826,3.376
				c1.367,1.491,2.437,3.321,3.21,5.489c0.773,2.168,1.16,4.66,1.16,7.477c0,0.139-0.049,0.242-0.145,0.311
				c-0.097,0.069-0.214,0.104-0.352,0.104H97.182c-0.056,0.388-0.083,0.761-0.083,1.119c0,0.359,0,0.731,0,1.118
				c0,3.369,0.4,6.345,1.201,8.927c0.801,2.583,1.94,4.75,3.417,6.504c1.477,1.754,3.258,3.086,5.344,3.997
				c2.084,0.911,4.397,1.367,6.938,1.367c2.292,0,4.259-0.249,5.903-0.746c1.643-0.497,3.01-1.049,4.101-1.656
				c1.09-0.607,1.919-1.16,2.485-1.657c0.566-0.497,0.932-0.746,1.098-0.746c0.11,0,0.221,0.056,0.332,0.166l0.166,0.166
				c-0.47,0.58-1.167,1.181-2.092,1.802c-0.926,0.621-2.016,1.194-3.272,1.719c-1.257,0.525-2.63,0.953-4.122,1.284
				c-1.491,0.332-3.024,0.497-4.598,0.497c-2.79,0-5.289-0.49-7.498-1.471c-2.21-0.979-4.081-2.396-5.613-4.245
				c-1.533-1.851-2.713-4.115-3.542-6.794c-0.829-2.679-1.243-5.717-1.243-9.113c0-2.982,0.4-5.709,1.201-8.182
				c0.801-2.471,1.96-4.591,3.479-6.358c1.519-1.767,3.376-3.141,5.572-4.121C108.553,110.43,111.045,109.939,113.835,109.939z
				 M113.835,110.768c-2.431,0-4.619,0.394-6.566,1.181s-3.625,1.892-5.033,3.314c-1.408,1.422-2.534,3.142-3.376,5.157
				c-0.843,2.016-1.388,4.239-1.636,6.669h30.861c0-2.623-0.359-4.95-1.077-6.98c-0.718-2.029-1.719-3.734-3.003-5.115
				s-2.796-2.43-4.536-3.148C117.729,111.127,115.85,110.768,113.835,110.768z"/>
			<path fill="#FFFFFF" d="M143.08,91.547v59.65h-0.994v-59.65H143.08z"/>
			<path fill="#FFFFFF" d="M163.293,95.523c0,0.58-0.242,1.098-0.725,1.554c-0.483,0.456-1.015,0.684-1.595,0.684
				c-0.636,0-1.181-0.228-1.636-0.684c-0.456-0.456-0.684-0.974-0.684-1.554c0-0.635,0.228-1.181,0.684-1.636
				c0.456-0.456,1-0.684,1.636-0.684c0.58,0,1.111,0.228,1.595,0.684C163.052,94.343,163.293,94.889,163.293,95.523z
				 M161.471,110.602v40.596h-0.994v-40.596H161.471z"/>
			<path fill="#FFFFFF" d="M186.987,130.568l-14.582-19.967h0.912c0.221,0,0.386,0.077,0.497,0.229
				c0.11,0.152,0.193,0.27,0.249,0.352l13.628,18.849c0.055-0.11,0.11-0.208,0.166-0.29c0.055-0.083,0.125-0.193,0.207-0.332
				l13.256-18.227c0.083-0.138,0.187-0.269,0.311-0.394c0.125-0.124,0.27-0.187,0.435-0.187h0.911l-14.623,19.843l15.203,20.753
				h-0.911c-0.222,0-0.387-0.075-0.497-0.228c-0.111-0.151-0.194-0.27-0.249-0.353l-14.25-19.635
				c-0.028,0.139-0.139,0.332-0.332,0.58l-13.835,19.055c-0.111,0.139-0.221,0.27-0.332,0.394c-0.11,0.125-0.249,0.187-0.414,0.187
				h-0.912L186.987,130.568z"/>
		</g>
		<line fill="none" stroke="#FFFFFF" stroke-miterlimit="10" x1="57" y1="169.5" x2="203" y2="169.5"/>
	</g>
	<g>
	</g>
	<g>
	</g>
	<g>
	</g>
	<g>
	</g>
	<g>
	</g>
	<g>
	</g>
	<g>
	</g>
	<g>
	</g>
	<g>
	</g>
	<g>
	</g>
	<g>
	</g>
	<g>
	</g>
	<g>
	</g>
	<g>
	</g>
	<g>
	</g>
</g>
</svg>
